<svg width="28" height="28" viewBox="0 0 28 28" fill="none" xmlns="http://www.w3.org/2000/svg">
<path fill-rule="evenodd" clip-rule="evenodd" d="M19.8514 0C20.7516 0 21.6146 0.359452 22.2449 0.994706L26.5086 5.25844C27.1434 5.89325 27.5001 6.75423 27.5001 7.65198C27.5001 8.54974 27.1434 9.41072 26.5086 10.0455L10.9416 25.6077C9.98116 26.7155 8.61974 27.3962 7.06007 27.5032H0V26.1282L0.00446552 20.3325C0.121603 18.8826 0.795667 17.5345 1.82393 16.6285L17.4562 0.996364C18.09 0.358641 18.9521 0 19.8514 0ZM6.96297 24.7566C7.69752 24.7046 8.38128 24.3628 8.93033 23.7347L18.828 13.8371L13.6656 8.67458L3.70713 18.6307C3.15005 19.1234 2.80541 19.8127 2.74999 20.4433V24.7541L6.96297 24.7566ZM15.6104 6.73027L20.7725 11.8926L24.5641 8.10099C24.6832 7.98191 24.7501 7.8204 24.7501 7.65199C24.7501 7.48359 24.6832 7.32208 24.5641 7.203L20.2965 2.93544C20.1788 2.81676 20.0185 2.75001 19.8513 2.75001C19.6842 2.75001 19.5239 2.81676 19.4062 2.93544L15.6104 6.73027Z" fill="#FDA704"/>
</svg>
