<svg width="30" height="29" viewBox="0 0 30 29" fill="none" xmlns="http://www.w3.org/2000/svg">
<path fill-rule="evenodd" clip-rule="evenodd" d="M13.8305 1.01746C13.8926 0.936938 13.9598 0.860336 14.0322 0.787854C15.919 -1.10211 20.6025 0.524789 24.4929 4.42163C28.1098 8.04446 29.768 12.3538 28.4671 14.4606C29.2005 17.039 30 21.0093 30 21.8789C30 23.3346 28.8086 24.5147 27.339 24.5147C25.8694 24.5147 24.678 23.3346 24.678 21.8789C24.678 21.2873 24.8747 19.6311 25.2069 17.8732L14.9235 28.1735C14.9138 28.1873 14.9027 28.2005 14.8903 28.2129C14.8564 28.2469 14.8216 28.2797 14.7859 28.3114L14.6725 28.4249C14.6506 28.4469 14.6232 28.4601 14.5947 28.4644C12.5483 29.9385 8.1265 28.2822 4.42155 24.5712C0.642505 20.7859 -1.00229 16.2537 0.626753 14.2612C0.633538 14.2427 0.644361 14.2253 0.659222 14.2104L13.8305 1.01746ZM27.0851 12.5447H22.1856C21.1273 11.9073 20.0157 11.0463 18.9474 9.97625C17.1534 8.17927 15.9479 6.2599 15.3998 4.6767C14.8914 3.20828 15.0684 2.47546 15.238 2.18668L15.4151 2.00938C15.4188 2.00558 15.4224 2.00162 15.4256 1.99752C15.7118 1.82706 16.4434 1.64663 17.9146 2.1577C19.4952 2.70676 21.4115 3.91419 23.2055 5.71116C24.9995 7.50814 26.205 9.42751 26.7531 11.0107C26.9765 11.6557 27.0675 12.1588 27.0851 12.5447ZM13.5582 26.962L24.8513 15.6504C24.8409 15.6281 24.8319 15.603 24.8258 15.5754C22.6814 15.1638 20.0243 13.634 17.66 11.2658C15.2902 8.89212 13.7613 6.22375 13.3546 4.07326L2.08409 15.3622C2.08078 15.3667 2.07714 15.3709 2.07319 15.3748C1.90156 15.5467 1.55997 16.2583 2.15543 17.9757C2.70499 19.5607 3.91255 21.4823 5.70897 23.2817C7.50539 25.081 9.42386 26.2906 11.0062 26.841C12.5996 27.3953 13.3257 27.139 13.5582 26.962Z" fill="#FDA704"/>
</svg>
