<svg width="30" height="30" viewBox="0 0 30 30" fill="none" xmlns="http://www.w3.org/2000/svg">
<path d="M14.9134 1.95C14.9265 1.92727 14.9391 1.91774 14.9492 1.91217C14.9616 1.90527 14.9792 1.9 15 1.9C15.0208 1.9 15.0384 1.90527 15.0508 1.91217C15.0609 1.91774 15.0735 1.92727 15.0866 1.95L26.3449 21.45C26.3581 21.4727 26.36 21.4884 26.3598 21.4999C26.3596 21.5141 26.3554 21.5319 26.3449 21.55C26.3345 21.5681 26.3212 21.5806 26.309 21.5879C26.2991 21.5939 26.2846 21.6 26.2583 21.6H3.74167C3.71543 21.6 3.70087 21.5939 3.69103 21.5879C3.67883 21.5806 3.66549 21.5681 3.65507 21.55C3.64464 21.5319 3.64044 21.5141 3.64019 21.4999C3.63999 21.4884 3.64195 21.4727 3.65507 21.45L14.9134 1.95Z" stroke="#FDA704" stroke-width="1.8"/>
</svg>
