<svg width="22" height="22" viewBox="0 0 22 22" fill="none" xmlns="http://www.w3.org/2000/svg">
<path fill-rule="evenodd" clip-rule="evenodd" d="M8.77819 10.1924C9.16871 10.5829 9.16871 11.2161 8.77819 11.6066L0.292923 20.0919C-0.0976017 20.4824 -0.0976017 21.1156 0.292923 21.5061C0.683447 21.8966 1.31661 21.8966 1.70714 21.5061L10.1924 13.0208C10.5829 12.6303 11.2161 12.6303 11.6066 13.0208L20.0919 21.5061C20.4824 21.8966 21.1156 21.8966 21.5061 21.5061C21.8966 21.1156 21.8966 20.4824 21.5061 20.0919L13.0208 11.6066C12.6303 11.2161 12.6303 10.5829 13.0208 10.1924L21.5061 1.70711C21.8967 1.31658 21.8967 0.683418 21.5061 0.292893C21.1156 -0.0976309 20.4824 -0.0976312 20.0919 0.292893L11.6066 8.77819C11.2161 9.16872 10.5829 9.16872 10.1924 8.77819L1.70711 0.2929C1.31658 -0.0976243 0.683418 -0.0976243 0.292894 0.2929C-0.0976307 0.683424 -0.0976314 1.31659 0.292893 1.70711L8.77819 10.1924Z" fill="#FDA704"/>
</svg>
