<svg width="39" height="39" viewBox="0 0 39 39" fill="none" xmlns="http://www.w3.org/2000/svg">
<path d="M24.3125 10.9234L24.4907 11.0988L24.6688 10.9234L28.6849 6.96915C29.5458 6.12141 30.9233 6.11881 31.7813 6.96363C32.6357 7.80489 32.6357 9.16569 31.7757 10.0125L27.7597 13.9667L27.5815 14.1421L27.7597 14.3175L29.486 16.0174C30.0229 16.546 30.0239 17.3942 29.4832 17.9265C28.9495 18.4521 28.0745 18.4514 27.5341 17.9193L20.6545 11.1455C20.1099 10.6094 20.1086 9.75665 20.6471 9.22637C21.1842 8.69758 22.0517 8.69739 22.5861 9.22361L24.3125 10.9234ZM19.1491 12.6277L26.0287 19.4015C27.3976 20.7492 29.6205 20.7558 30.9886 19.4087C32.3605 18.0578 32.3597 15.8824 30.9914 14.5352L30.5922 14.1421L33.2811 11.4946C34.9714 9.83029 34.9735 7.1423 33.2867 5.48145C31.5948 3.81565 28.8694 3.82306 27.1795 5.48698L24.4907 8.13448L24.0915 7.74143C22.7246 6.39555 20.5091 6.39791 19.1418 7.74419C17.7682 9.09662 17.7768 11.2765 19.1491 12.6277Z" fill="#FDA704" stroke="#FDA704" stroke-width="0.5"/>
<path d="M24.839 17.3042L11.2631 30.6713L11.2433 30.69L11.2106 30.7029L7.98781 30.8595L8.1763 27.6841L8.18595 27.6176L21.7497 14.2625C22.1654 13.8532 22.1654 13.1896 21.7497 12.7803C21.3341 12.371 20.6601 12.371 20.2444 12.7803L6.45582 26.3567C6.27565 26.5342 6.16609 26.7693 6.14704 27.0195C6.14702 27.0198 6.14699 27.0201 6.14697 27.0204L5.67654 32.7588L5.65317 33.0439L5.94311 33.0263L11.8786 32.6672L11.8786 32.6672L11.8818 32.6669C12.1362 32.6484 12.3754 32.5405 12.5558 32.3628L26.3443 18.7864C26.76 18.3771 26.76 17.7135 26.3443 17.3042C25.9287 16.8949 25.2547 16.8949 24.839 17.3042Z" fill="#FDA704" stroke="#FDA704" stroke-width="0.5"/>
</svg>
