<svg width="24" height="34" viewBox="0 0 24 34" fill="none" xmlns="http://www.w3.org/2000/svg">
<path d="M0.936 13.56V8.34C0.936 7.98 1.116 7.8 1.476 7.8H20.916C21.276 7.8 21.456 7.98 21.456 8.34V13.56C21.456 13.92 21.276 14.1 20.916 14.1C20.556 14.1 20.376 13.92 20.376 13.56V9.42C20.376 9.06 20.196 8.88 19.836 8.88H12.276C11.916 8.88 11.736 9.06 11.736 9.42V31.38C11.736 31.74 11.916 31.92 12.276 31.92H14.796C15.156 31.92 15.336 32.1 15.336 32.46C15.336 32.82 15.156 33 14.796 33H7.596C7.236 33 7.056 32.82 7.056 32.46C7.056 32.1 7.236 31.92 7.596 31.92H10.116C10.476 31.92 10.656 31.74 10.656 31.38V9.42C10.656 9.06 10.476 8.88 10.116 8.88H2.556C2.196 8.88 2.016 9.06 2.016 9.42V13.56C2.016 13.92 1.836 14.1 1.476 14.1C1.116 14.1 0.936 13.92 0.936 13.56Z" fill="#0D2750"/>
<path d="M1.436 13.56V8.34H0.436V13.56H1.436ZM1.436 8.34C1.436 8.29017 1.4424 8.26693 1.44409 8.26186C1.44477 8.25983 1.44409 8.26252 1.44068 8.26818C1.43718 8.27403 1.43184 8.28127 1.42455 8.28855C1.41727 8.29584 1.41003 8.30117 1.40419 8.30468C1.39852 8.30808 1.39583 8.30877 1.39786 8.30809C1.40293 8.3064 1.42617 8.3 1.476 8.3V7.3C1.21893 7.3 0.934287 7.3646 0.717447 7.58144C0.500607 7.79828 0.436 8.08293 0.436 8.34H1.436ZM1.476 8.3H20.916V7.3H1.476V8.3ZM20.916 8.3C20.9658 8.3 20.9891 8.3064 20.9941 8.30809C20.9962 8.30877 20.9935 8.30808 20.9878 8.30468C20.982 8.30117 20.9747 8.29584 20.9674 8.28855C20.9602 8.28127 20.9548 8.27403 20.9513 8.26818C20.9479 8.26252 20.9472 8.25983 20.9479 8.26186C20.9496 8.26693 20.956 8.29017 20.956 8.34H21.956C21.956 8.08293 21.8914 7.79828 21.6746 7.58144C21.4577 7.3646 21.1731 7.3 20.916 7.3V8.3ZM20.956 8.34V13.56H21.956V8.34H20.956ZM20.956 13.56C20.956 13.6098 20.9496 13.6331 20.9479 13.6381C20.9472 13.6402 20.9479 13.6375 20.9513 13.6318C20.9548 13.626 20.9602 13.6187 20.9674 13.6114C20.9747 13.6042 20.982 13.5988 20.9878 13.5953C20.9935 13.5919 20.9962 13.5912 20.9941 13.5919C20.9891 13.5936 20.9658 13.6 20.916 13.6V14.6C21.1731 14.6 21.4577 14.5354 21.6746 14.3186C21.8914 14.1017 21.956 13.8171 21.956 13.56H20.956ZM20.916 13.6C20.8662 13.6 20.8429 13.5936 20.8379 13.5919C20.8358 13.5912 20.8385 13.5919 20.8442 13.5953C20.85 13.5988 20.8573 13.6042 20.8646 13.6114C20.8718 13.6187 20.8772 13.626 20.8807 13.6318C20.8841 13.6375 20.8848 13.6402 20.8841 13.6381C20.8824 13.6331 20.876 13.6098 20.876 13.56H19.876C19.876 13.8171 19.9406 14.1017 20.1574 14.3186C20.3743 14.5354 20.6589 14.6 20.916 14.6V13.6ZM20.876 13.56V9.42H19.876V13.56H20.876ZM20.876 9.42C20.876 9.16293 20.8114 8.87828 20.5946 8.66145C20.3777 8.44461 20.0931 8.38 19.836 8.38V9.38C19.8858 9.38 19.9091 9.3864 19.9141 9.38809C19.9162 9.38877 19.9135 9.38809 19.9078 9.38468C19.902 9.38118 19.8947 9.37584 19.8874 9.36855C19.8802 9.36127 19.8748 9.35403 19.8713 9.34819C19.8679 9.34252 19.8672 9.33983 19.8679 9.34186C19.8696 9.34693 19.876 9.37017 19.876 9.42H20.876ZM19.836 8.38H12.276V9.38H19.836V8.38ZM12.276 8.38C12.0189 8.38 11.7343 8.44461 11.5174 8.66145C11.3006 8.87829 11.236 9.16293 11.236 9.42H12.236C12.236 9.37017 12.2424 9.34693 12.2441 9.34186C12.2448 9.33983 12.2441 9.34252 12.2407 9.34818C12.2372 9.35403 12.2318 9.36127 12.2246 9.36855C12.2173 9.37584 12.21 9.38118 12.2042 9.38468C12.1985 9.38808 12.1958 9.38877 12.1979 9.38809C12.2029 9.3864 12.2262 9.38 12.276 9.38V8.38ZM11.236 9.42V31.38H12.236V9.42H11.236ZM11.236 31.38C11.236 31.6371 11.3006 31.9217 11.5174 32.1386C11.7343 32.3554 12.0189 32.42 12.276 32.42V31.42C12.2262 31.42 12.2029 31.4136 12.1979 31.4119C12.1958 31.4112 12.1985 31.4119 12.2042 31.4153C12.21 31.4188 12.2173 31.4242 12.2246 31.4314C12.2318 31.4387 12.2372 31.446 12.2407 31.4518C12.2441 31.4575 12.2448 31.4602 12.2441 31.4581C12.2424 31.4531 12.236 31.4298 12.236 31.38H11.236ZM12.276 32.42H14.796V31.42H12.276V32.42ZM14.796 32.42C14.8458 32.42 14.8691 32.4264 14.8741 32.4281C14.8762 32.4288 14.8735 32.4281 14.8678 32.4247C14.862 32.4212 14.8547 32.4158 14.8474 32.4086C14.8402 32.4013 14.8348 32.394 14.8313 32.3882C14.8279 32.3825 14.8272 32.3798 14.8279 32.3819C14.8296 32.3869 14.836 32.4102 14.836 32.46H15.836C15.836 32.2029 15.7714 31.9183 15.5546 31.7014C15.3377 31.4846 15.0531 31.42 14.796 31.42V32.42ZM14.836 32.46C14.836 32.5098 14.8296 32.5331 14.8279 32.5381C14.8272 32.5402 14.8279 32.5375 14.8313 32.5318C14.8348 32.526 14.8402 32.5187 14.8474 32.5114C14.8547 32.5042 14.862 32.4988 14.8678 32.4953C14.8735 32.4919 14.8762 32.4912 14.8741 32.4919C14.8691 32.4936 14.8458 32.5 14.796 32.5V33.5C15.0531 33.5 15.3377 33.4354 15.5546 33.2186C15.7714 33.0017 15.836 32.7171 15.836 32.46H14.836ZM14.796 32.5H7.596V33.5H14.796V32.5ZM7.596 32.5C7.54618 32.5 7.52293 32.4936 7.51786 32.4919C7.51583 32.4912 7.51852 32.4919 7.52419 32.4953C7.53003 32.4988 7.53727 32.5042 7.54455 32.5114C7.55184 32.5187 7.55718 32.526 7.56068 32.5318C7.56409 32.5375 7.56477 32.5402 7.56409 32.5381C7.5624 32.5331 7.556 32.5098 7.556 32.46H6.556C6.556 32.7171 6.62061 33.0017 6.83745 33.2186C7.05429 33.4354 7.33893 33.5 7.596 33.5V32.5ZM7.556 32.46C7.556 32.4102 7.5624 32.3869 7.56409 32.3819C7.56477 32.3798 7.56409 32.3825 7.56068 32.3882C7.55718 32.394 7.55184 32.4013 7.54455 32.4086C7.53727 32.4158 7.53003 32.4212 7.52419 32.4247C7.51852 32.4281 7.51583 32.4288 7.51786 32.4281C7.52293 32.4264 7.54618 32.42 7.596 32.42V31.42C7.33893 31.42 7.05429 31.4846 6.83745 31.7014C6.62061 31.9183 6.556 32.2029 6.556 32.46H7.556ZM7.596 32.42H10.116V31.42H7.596V32.42ZM10.116 32.42C10.3731 32.42 10.6577 32.3554 10.8746 32.1386C11.0914 31.9217 11.156 31.6371 11.156 31.38H10.156C10.156 31.4298 10.1496 31.4531 10.1479 31.4581C10.1472 31.4602 10.1479 31.4575 10.1513 31.4518C10.1548 31.446 10.1602 31.4387 10.1674 31.4314C10.1747 31.4242 10.182 31.4188 10.1878 31.4153C10.1935 31.4119 10.1962 31.4112 10.1941 31.4119C10.1891 31.4136 10.1658 31.42 10.116 31.42V32.42ZM11.156 31.38V9.42H10.156V31.38H11.156ZM11.156 9.42C11.156 9.16293 11.0914 8.87829 10.8746 8.66145C10.6577 8.44461 10.3731 8.38 10.116 8.38V9.38C10.1658 9.38 10.1891 9.3864 10.1941 9.38809C10.1962 9.38877 10.1935 9.38808 10.1878 9.38468C10.182 9.38118 10.1747 9.37584 10.1674 9.36855C10.1602 9.36127 10.1548 9.35403 10.1513 9.34818C10.1479 9.34252 10.1472 9.33983 10.1479 9.34186C10.1496 9.34693 10.156 9.37017 10.156 9.42H11.156ZM10.116 8.38H2.556V9.38H10.116V8.38ZM2.556 8.38C2.29893 8.38 2.01429 8.44461 1.79745 8.66145C1.58061 8.87829 1.516 9.16293 1.516 9.42H2.516C2.516 9.37017 2.5224 9.34693 2.52409 9.34186C2.52477 9.33983 2.52409 9.34252 2.52068 9.34818C2.51718 9.35403 2.51184 9.36127 2.50455 9.36855C2.49727 9.37584 2.49003 9.38118 2.48419 9.38468C2.47852 9.38808 2.47583 9.38877 2.47786 9.38809C2.48293 9.3864 2.50617 9.38 2.556 9.38V8.38ZM1.516 9.42V13.56H2.516V9.42H1.516ZM1.516 13.56C1.516 13.6098 1.5096 13.6331 1.50791 13.6381C1.50723 13.6402 1.50791 13.6375 1.51132 13.6318C1.51482 13.626 1.52016 13.6187 1.52745 13.6114C1.53473 13.6042 1.54197 13.5988 1.54781 13.5953C1.55348 13.5919 1.55617 13.5912 1.55414 13.5919C1.54907 13.5936 1.52583 13.6 1.476 13.6V14.6C1.73307 14.6 2.01771 14.5354 2.23455 14.3186C2.45139 14.1017 2.516 13.8171 2.516 13.56H1.516ZM1.476 13.6C1.42617 13.6 1.40293 13.5936 1.39786 13.5919C1.39583 13.5912 1.39852 13.5919 1.40419 13.5953C1.41003 13.5988 1.41727 13.6042 1.42455 13.6114C1.43184 13.6187 1.43718 13.626 1.44068 13.6318C1.44409 13.6375 1.44477 13.6402 1.44409 13.6381C1.4424 13.6331 1.436 13.6098 1.436 13.56H0.436C0.436 13.8171 0.500607 14.1017 0.717447 14.3186C0.934287 14.5354 1.21893 14.6 1.476 14.6V13.6Z" fill="#0D2750"/>
</svg>
