<svg width="32" height="31" viewBox="0 0 32 31" fill="none" xmlns="http://www.w3.org/2000/svg">
<path fill-rule="evenodd" clip-rule="evenodd" d="M14.8305 2.01746C14.8926 1.93694 14.9598 1.86034 15.0322 1.78785C16.919 -0.102107 21.6025 1.52479 25.4929 5.42163C29.1098 9.04446 30.768 13.3538 29.4671 15.4606C30.2005 18.039 31 22.0093 31 22.8789C31 24.3346 29.8086 25.5147 28.339 25.5147C26.8694 25.5147 25.678 24.3346 25.678 22.8789C25.678 22.2873 25.8747 20.6311 26.2069 18.8732L15.9235 29.1735C15.9138 29.1873 15.9027 29.2005 15.8903 29.2129C15.8564 29.2469 15.8216 29.2797 15.7859 29.3114L15.6725 29.4249C15.6506 29.4469 15.6232 29.4601 15.5947 29.4644C13.5483 30.9385 9.1265 29.2822 5.42155 25.5712C1.6425 21.7859 -0.00229239 17.2537 1.62675 15.2612C1.63354 15.2427 1.64436 15.2253 1.65922 15.2104L14.8305 2.01746ZM28.0851 13.5447H23.1856C22.1273 12.9073 21.0157 12.0463 19.9474 10.9762C18.1534 9.17927 16.9479 7.2599 16.3998 5.6767C15.8914 4.20828 16.0684 3.47546 16.238 3.18668L16.4151 3.00938C16.4188 3.00558 16.4224 3.00162 16.4256 2.99752C16.7118 2.82706 17.4434 2.64663 18.9146 3.1577C20.4952 3.70676 22.4115 4.91419 24.2055 6.71116C25.9995 8.50814 27.205 10.4275 27.7531 12.0107C27.9765 12.6557 28.0675 13.1588 28.0851 13.5447ZM14.5582 27.962L25.8513 16.6504C25.8409 16.6281 25.8319 16.603 25.8258 16.5754C23.6814 16.1638 21.0243 14.634 18.66 12.2658C16.2902 9.89212 14.7613 7.22375 14.3546 5.07326L3.08409 16.3622C3.08078 16.3667 3.07714 16.3709 3.07319 16.3748C2.90156 16.5467 2.55997 17.2583 3.15543 18.9757C3.70499 20.5607 4.91255 22.4823 6.70897 24.2817C8.50539 26.081 10.4239 27.2906 12.0062 27.841C13.5996 28.3953 14.3257 28.139 14.5582 27.962Z" fill="#0D2750" stroke="#0D2750" stroke-width="0.5"/>
</svg>
