<svg width="25" height="28" viewBox="0 0 25 28" fill="none" xmlns="http://www.w3.org/2000/svg">
<path fill-rule="evenodd" clip-rule="evenodd" d="M18.0467 0C18.8651 0 19.6497 0.359452 20.2226 0.994706L24.0988 5.25844C24.6759 5.89325 25.0001 6.75423 25.0001 7.65198C25.0001 8.54974 24.6759 9.41072 24.0988 10.0455L9.94688 25.6077C9.07378 26.7155 7.83612 27.3962 6.41825 27.5032H0V26.1282L0.00405956 20.3325C0.110548 18.8826 0.723333 17.5345 1.65812 16.6285L15.8692 0.996364C16.4455 0.358641 17.2292 0 18.0467 0ZM6.32997 24.7566C6.99775 24.7046 7.61935 24.3628 8.11848 23.7347L17.5709 13.3371L12.8779 8.17464L3.37012 18.6307C2.86368 19.1234 2.55038 19.8127 2.49999 20.4433V24.7541L6.32997 24.7566ZM14.6459 6.23033L19.3386 11.3926L22.331 8.10099C22.4392 7.98191 22.5001 7.8204 22.5001 7.65199C22.5001 7.48359 22.4392 7.32208 22.331 7.203L18.4514 2.93544C18.3443 2.81676 18.1987 2.75001 18.0467 2.75001C17.8947 2.75001 17.749 2.81676 17.642 2.93544L14.6459 6.23033Z" fill="#0D2750"/>
</svg>
