<svg width="38" height="38" viewBox="0 0 38 38" fill="none" xmlns="http://www.w3.org/2000/svg">
<path d="M22.2583 18.3662L9.03119 32.0799L9.03018 32.0809L8.99894 32.112L8.98992 32.1167L8.93145 32.1415L5.58504 32.3908L5.69536 29.097L5.70665 29.002L5.70723 29.0006L5.7253 28.975L18.9455 15.2686C19.3121 14.8885 19.2966 14.2879 18.9108 13.9272C18.5251 13.5665 17.9151 13.5823 17.5485 13.9624L4.11483 27.8901C3.95583 28.055 3.86216 28.2705 3.85084 28.4975C3.85083 28.4976 3.85082 28.4978 3.85081 28.4979L3.52859 34.2473L3.51899 34.4186L3.69262 34.4036L9.61687 33.8914L9.61876 33.8912C9.84858 33.8684 10.0625 33.7652 10.2216 33.6002L23.6553 19.6725C24.0219 19.2923 24.0064 18.6918 23.6207 18.3311C23.2349 17.9704 22.6249 17.9861 22.2583 18.3662Z" fill="#0D2750" stroke="#0D2750" stroke-width="0.3"/>
<path d="M22.6346 11.223L22.7441 11.3255L22.8483 11.2175L26.7609 7.16094C27.6379 6.25177 29.0786 6.21148 29.9987 7.07183C30.9151 7.92865 30.9514 9.35182 30.0754 10.2601L26.1627 14.3167L26.0586 14.4246L26.1681 14.5271L27.9378 16.1818C28.5286 16.7342 28.5529 17.6449 27.9879 18.2307C27.4292 18.8099 26.4906 18.8327 25.8967 18.2774L18.8446 11.6834C18.2465 11.1242 18.2207 10.209 18.7841 9.62482C19.3456 9.04275 20.2766 9.01822 20.8649 9.56834L22.6346 11.223ZM17.5169 13.06L24.569 19.654C25.9321 20.9285 28.0906 20.8788 29.3849 19.5369C30.6832 18.1908 30.6278 16.0789 29.2656 14.8052L28.7833 14.3543L31.4724 11.5663C33.081 9.89853 33.0151 7.27419 31.3265 5.69526C29.6327 4.11158 26.9722 4.18728 25.364 5.8547L22.6749 8.64268L22.1926 8.19177C20.8319 6.91942 18.681 6.97712 17.3871 8.31858C16.0876 9.66595 16.1502 11.7821 17.5169 13.06Z" fill="#0D2750" stroke="#0D2750" stroke-width="0.3"/>
</svg>
