<svg width="34" height="41" viewBox="0 0 34 41" fill="none" xmlns="http://www.w3.org/2000/svg">
<mask id="path-1-inside-1" fill="white">
<rect x="8.19995" y="7.28889" width="21.8667" height="21.8667" rx="1"/>
</mask>
<rect x="8.19995" y="7.28889" width="21.8667" height="21.8667" rx="1" stroke="#0D2750" stroke-width="3.6" mask="url(#path-1-inside-1)"/>
<circle cx="9.11111" cy="9.11111" r="8.21111" stroke="#0D2750" stroke-width="1.8"/>
<path d="M22.6912 21.0833C22.7043 21.0606 22.7169 21.0511 22.727 21.0455C22.7394 21.0386 22.757 21.0333 22.7778 21.0333C22.7987 21.0333 22.8162 21.0386 22.8287 21.0455C22.8387 21.0511 22.8513 21.0606 22.8644 21.0833L30.6009 34.4833C30.614 34.5061 30.616 34.5217 30.6158 34.5332C30.6155 34.5474 30.6113 34.5653 30.6009 34.5833C30.5905 34.6014 30.5771 34.6139 30.5649 34.6213C30.5551 34.6272 30.5406 34.6333 30.5143 34.6333H15.0413C15.0151 34.6333 15.0005 34.6272 14.9907 34.6213C14.9785 34.6139 14.9651 34.6014 14.9547 34.5833C14.9443 34.5653 14.9401 34.5474 14.9398 34.5332C14.9396 34.5217 14.9416 34.5061 14.9547 34.4833L22.6912 21.0833Z" stroke="#0D2750" stroke-width="1.8"/>
</svg>
