<svg width="22" height="27" viewBox="0 0 22 27" fill="none" xmlns="http://www.w3.org/2000/svg">
<path d="M0.936 6.56V1.34C0.936 0.979998 1.116 0.799998 1.476 0.799998H20.916C21.276 0.799998 21.456 0.979998 21.456 1.34V6.56C21.456 6.92 21.276 7.1 20.916 7.1C20.556 7.1 20.376 6.92 20.376 6.56V2.42C20.376 2.06 20.196 1.88 19.836 1.88H12.276C11.916 1.88 11.736 2.06 11.736 2.42V24.38C11.736 24.74 11.916 24.92 12.276 24.92H14.796C15.156 24.92 15.336 25.1 15.336 25.46C15.336 25.82 15.156 26 14.796 26H7.596C7.236 26 7.056 25.82 7.056 25.46C7.056 25.1 7.236 24.92 7.596 24.92H10.116C10.476 24.92 10.656 24.74 10.656 24.38V2.42C10.656 2.06 10.476 1.88 10.116 1.88H2.556C2.196 1.88 2.016 2.06 2.016 2.42V6.56C2.016 6.92 1.836 7.1 1.476 7.1C1.116 7.1 0.936 6.92 0.936 6.56Z" fill="#FDA704"/>
<path d="M1.436 6.56V1.34H0.436V6.56H1.436ZM1.436 1.34C1.436 1.29017 1.4424 1.26693 1.44409 1.26186C1.44477 1.25983 1.44409 1.26251 1.44068 1.26818C1.43718 1.27403 1.43184 1.28127 1.42455 1.28855C1.41727 1.29584 1.41003 1.30117 1.40419 1.30468C1.39852 1.30808 1.39583 1.30877 1.39786 1.30809C1.40293 1.3064 1.42617 1.3 1.476 1.3V0.299998C1.21893 0.299998 0.934287 0.364605 0.717447 0.581445C0.500607 0.798284 0.436 1.08293 0.436 1.34H1.436ZM1.476 1.3H20.916V0.299998H1.476V1.3ZM20.916 1.3C20.9658 1.3 20.9891 1.3064 20.9941 1.30809C20.9962 1.30877 20.9935 1.30808 20.9878 1.30468C20.982 1.30117 20.9747 1.29584 20.9674 1.28855C20.9602 1.28126 20.9548 1.27403 20.9513 1.26818C20.9479 1.26251 20.9472 1.25983 20.9479 1.26186C20.9496 1.26693 20.956 1.29017 20.956 1.34H21.956C21.956 1.08293 21.8914 0.798285 21.6746 0.581445C21.4577 0.364605 21.1731 0.299998 20.916 0.299998V1.3ZM20.956 1.34V6.56H21.956V1.34H20.956ZM20.956 6.56C20.956 6.60982 20.9496 6.63307 20.9479 6.63814C20.9472 6.64017 20.9479 6.63748 20.9513 6.63181C20.9548 6.62597 20.9602 6.61873 20.9674 6.61145C20.9747 6.60416 20.982 6.59882 20.9878 6.59531C20.9935 6.59191 20.9962 6.59123 20.9941 6.59191C20.9891 6.5936 20.9658 6.6 20.916 6.6V7.6C21.1731 7.6 21.4577 7.53539 21.6746 7.31855C21.8914 7.10171 21.956 6.81707 21.956 6.56H20.956ZM20.916 6.6C20.8662 6.6 20.8429 6.5936 20.8379 6.59191C20.8358 6.59123 20.8385 6.59191 20.8442 6.59531C20.85 6.59882 20.8573 6.60416 20.8646 6.61145C20.8718 6.61873 20.8772 6.62597 20.8807 6.63181C20.8841 6.63748 20.8848 6.64017 20.8841 6.63814C20.8824 6.63307 20.876 6.60982 20.876 6.56H19.876C19.876 6.81707 19.9406 7.10171 20.1574 7.31855C20.3743 7.53539 20.6589 7.6 20.916 7.6V6.6ZM20.876 6.56V2.42H19.876V6.56H20.876ZM20.876 2.42C20.876 2.16293 20.8114 1.87828 20.5946 1.66145C20.3777 1.44461 20.0931 1.38 19.836 1.38V2.38C19.8858 2.38 19.9091 2.3864 19.9141 2.38809C19.9162 2.38877 19.9135 2.38808 19.9078 2.38468C19.902 2.38118 19.8947 2.37584 19.8874 2.36855C19.8802 2.36127 19.8748 2.35403 19.8713 2.34819C19.8679 2.34252 19.8672 2.33983 19.8679 2.34186C19.8696 2.34693 19.876 2.37017 19.876 2.42H20.876ZM19.836 1.38H12.276V2.38H19.836V1.38ZM12.276 1.38C12.0189 1.38 11.7343 1.44461 11.5174 1.66145C11.3006 1.87829 11.236 2.16293 11.236 2.42H12.236C12.236 2.37017 12.2424 2.34693 12.2441 2.34186C12.2448 2.33983 12.2441 2.34252 12.2407 2.34818C12.2372 2.35403 12.2318 2.36127 12.2246 2.36855C12.2173 2.37584 12.21 2.38118 12.2042 2.38468C12.1985 2.38808 12.1958 2.38877 12.1979 2.38809C12.2029 2.3864 12.2262 2.38 12.276 2.38V1.38ZM11.236 2.42V24.38H12.236V2.42H11.236ZM11.236 24.38C11.236 24.6371 11.3006 24.9217 11.5174 25.1386C11.7343 25.3554 12.0189 25.42 12.276 25.42V24.42C12.2262 24.42 12.2029 24.4136 12.1979 24.4119C12.1958 24.4112 12.1985 24.4119 12.2042 24.4153C12.21 24.4188 12.2173 24.4242 12.2246 24.4314C12.2318 24.4387 12.2372 24.446 12.2407 24.4518C12.2441 24.4575 12.2448 24.4602 12.2441 24.4581C12.2424 24.4531 12.236 24.4298 12.236 24.38H11.236ZM12.276 25.42H14.796V24.42H12.276V25.42ZM14.796 25.42C14.8458 25.42 14.8691 25.4264 14.8741 25.4281C14.8762 25.4288 14.8735 25.4281 14.8678 25.4247C14.862 25.4212 14.8547 25.4158 14.8474 25.4086C14.8402 25.4013 14.8348 25.394 14.8313 25.3882C14.8279 25.3825 14.8272 25.3798 14.8279 25.3819C14.8296 25.3869 14.836 25.4102 14.836 25.46H15.836C15.836 25.2029 15.7714 24.9183 15.5546 24.7014C15.3377 24.4846 15.0531 24.42 14.796 24.42V25.42ZM14.836 25.46C14.836 25.5098 14.8296 25.5331 14.8279 25.5381C14.8272 25.5402 14.8279 25.5375 14.8313 25.5318C14.8348 25.526 14.8402 25.5187 14.8474 25.5114C14.8547 25.5042 14.862 25.4988 14.8678 25.4953C14.8735 25.4919 14.8762 25.4912 14.8741 25.4919C14.8691 25.4936 14.8458 25.5 14.796 25.5V26.5C15.0531 26.5 15.3377 26.4354 15.5546 26.2186C15.7714 26.0017 15.836 25.7171 15.836 25.46H14.836ZM14.796 25.5H7.596V26.5H14.796V25.5ZM7.596 25.5C7.54618 25.5 7.52293 25.4936 7.51786 25.4919C7.51583 25.4912 7.51852 25.4919 7.52419 25.4953C7.53003 25.4988 7.53727 25.5042 7.54455 25.5114C7.55184 25.5187 7.55718 25.526 7.56068 25.5318C7.56409 25.5375 7.56477 25.5402 7.56409 25.5381C7.5624 25.5331 7.556 25.5098 7.556 25.46H6.556C6.556 25.7171 6.62061 26.0017 6.83745 26.2186C7.05429 26.4354 7.33893 26.5 7.596 26.5V25.5ZM7.556 25.46C7.556 25.4102 7.5624 25.3869 7.56409 25.3819C7.56477 25.3798 7.56409 25.3825 7.56068 25.3882C7.55718 25.394 7.55184 25.4013 7.54455 25.4086C7.53727 25.4158 7.53003 25.4212 7.52419 25.4247C7.51852 25.4281 7.51583 25.4288 7.51786 25.4281C7.52293 25.4264 7.54618 25.42 7.596 25.42V24.42C7.33893 24.42 7.05429 24.4846 6.83745 24.7014C6.62061 24.9183 6.556 25.2029 6.556 25.46H7.556ZM7.596 25.42H10.116V24.42H7.596V25.42ZM10.116 25.42C10.3731 25.42 10.6577 25.3554 10.8746 25.1386C11.0914 24.9217 11.156 24.6371 11.156 24.38H10.156C10.156 24.4298 10.1496 24.4531 10.1479 24.4581C10.1472 24.4602 10.1479 24.4575 10.1513 24.4518C10.1548 24.446 10.1602 24.4387 10.1674 24.4314C10.1747 24.4242 10.182 24.4188 10.1878 24.4153C10.1935 24.4119 10.1962 24.4112 10.1941 24.4119C10.1891 24.4136 10.1658 24.42 10.116 24.42V25.42ZM11.156 24.38V2.42H10.156V24.38H11.156ZM11.156 2.42C11.156 2.16293 11.0914 1.87829 10.8746 1.66145C10.6577 1.44461 10.3731 1.38 10.116 1.38V2.38C10.1658 2.38 10.1891 2.3864 10.1941 2.38809C10.1962 2.38877 10.1935 2.38808 10.1878 2.38468C10.182 2.38117 10.1747 2.37584 10.1674 2.36855C10.1602 2.36127 10.1548 2.35403 10.1513 2.34818C10.1479 2.34252 10.1472 2.33983 10.1479 2.34186C10.1496 2.34693 10.156 2.37017 10.156 2.42H11.156ZM10.116 1.38H2.556V2.38H10.116V1.38ZM2.556 1.38C2.29893 1.38 2.01429 1.44461 1.79745 1.66145C1.58061 1.87829 1.516 2.16293 1.516 2.42H2.516C2.516 2.37017 2.5224 2.34693 2.52409 2.34186C2.52477 2.33983 2.52409 2.34252 2.52068 2.34818C2.51718 2.35403 2.51184 2.36127 2.50455 2.36855C2.49727 2.37584 2.49003 2.38117 2.48419 2.38468C2.47852 2.38808 2.47583 2.38877 2.47786 2.38809C2.48293 2.3864 2.50617 2.38 2.556 2.38V1.38ZM1.516 2.42V6.56H2.516V2.42H1.516ZM1.516 6.56C1.516 6.60982 1.5096 6.63307 1.50791 6.63813C1.50723 6.64017 1.50791 6.63748 1.51132 6.63181C1.51482 6.62597 1.52016 6.61873 1.52745 6.61145C1.53473 6.60416 1.54197 6.59882 1.54781 6.59531C1.55348 6.59191 1.55617 6.59123 1.55414 6.59191C1.54907 6.5936 1.52583 6.6 1.476 6.6V7.6C1.73307 7.6 2.01771 7.53539 2.23455 7.31855C2.45139 7.10171 2.516 6.81707 2.516 6.56H1.516ZM1.476 6.6C1.42617 6.6 1.40293 6.5936 1.39786 6.59191C1.39583 6.59123 1.39852 6.59191 1.40419 6.59531C1.41003 6.59882 1.41727 6.60416 1.42455 6.61145C1.43184 6.61873 1.43718 6.62597 1.44068 6.63181C1.44409 6.63748 1.44477 6.64017 1.44409 6.63813C1.4424 6.63307 1.436 6.60982 1.436 6.56H0.436C0.436 6.81707 0.500607 7.10171 0.717447 7.31855C0.934287 7.53539 1.21893 7.6 1.476 7.6V6.6Z" fill="#FDA704"/>
</svg>
