<svg width="34" height="41" viewBox="0 0 34 41" fill="none" xmlns="http://www.w3.org/2000/svg">
<mask id="path-1-inside-1" fill="white">
<rect x="8.20001" y="7.28894" width="21.8667" height="21.8667" rx="1"/>
</mask>
<rect x="8.20001" y="7.28894" width="21.8667" height="21.8667" rx="1" stroke="#FDA704" stroke-width="3.6" mask="url(#path-1-inside-1)"/>
<circle cx="9.11111" cy="9.11111" r="8.21111" stroke="#FDA704" stroke-width="1.8"/>
<path d="M22.6912 21.0833C22.7043 21.0606 22.7169 21.051 22.7269 21.0455C22.7394 21.0386 22.7569 21.0333 22.7778 21.0333C22.7986 21.0333 22.8161 21.0386 22.8286 21.0455C22.8386 21.051 22.8512 21.0606 22.8644 21.0833L30.6008 34.4833C30.614 34.506 30.6159 34.5217 30.6157 34.5332C30.6155 34.5474 30.6113 34.5652 30.6008 34.5833C30.5904 34.6014 30.5771 34.6139 30.5649 34.6212C30.555 34.6272 30.5405 34.6333 30.5142 34.6333H15.0413C15.015 34.6333 15.0005 34.6272 14.9906 34.6212C14.9784 34.6139 14.9651 34.6014 14.9547 34.5833C14.9442 34.5652 14.94 34.5474 14.9398 34.5332C14.9396 34.5217 14.9415 34.506 14.9547 34.4833L22.6912 21.0833Z" stroke="#FDA704" stroke-width="1.8"/>
</svg>
