<svg width="223" height="111" viewBox="0 0 223 111" fill="none" xmlns="http://www.w3.org/2000/svg">
<path d="M17.168 26.8906L12.5977 31.8125V44H3.80859V1.34375H12.5977V20.6797L16.4648 15.377L27.334 1.34375H38.1445L22.998 20.2988L38.584 44H28.125L17.168 26.8906ZM79.2855 28.3848H72.2836V44H63.4945V1.34375H79.3441C84.3832 1.34375 88.2699 2.4668 91.0043 4.71289C93.7387 6.95898 95.1059 10.1328 95.1059 14.2344C95.1059 17.1445 94.4711 19.5762 93.2016 21.5293C91.9516 23.4629 90.0473 25.0059 87.4887 26.1582L96.7172 43.5898V44H87.2836L79.2855 28.3848ZM72.2836 21.2656H79.3734C81.5805 21.2656 83.2895 20.709 84.5004 19.5957C85.7113 18.4629 86.3168 16.9102 86.3168 14.9375C86.3168 12.9258 85.7406 11.3437 84.5883 10.1914C83.4555 9.03906 81.7074 8.46289 79.3441 8.46289H72.2836V21.2656ZM158.454 23.6387C158.454 27.8379 157.712 31.5195 156.227 34.6836C154.743 37.8477 152.614 40.2891 149.841 42.0078C147.087 43.7266 143.923 44.5859 140.348 44.5859C136.813 44.5859 133.659 43.7363 130.886 42.0371C128.112 40.3379 125.964 37.916 124.44 34.7715C122.917 31.6074 122.145 27.9746 122.126 23.873V21.7637C122.126 17.5645 122.878 13.873 124.382 10.6895C125.905 7.48633 128.044 5.03516 130.798 3.33594C133.571 1.61719 136.735 0.757812 140.29 0.757812C143.845 0.757812 146.999 1.61719 149.753 3.33594C152.526 5.03516 154.665 7.48633 156.169 10.6895C157.692 13.873 158.454 17.5547 158.454 21.7344V23.6387ZM149.548 21.7051C149.548 17.2324 148.747 13.834 147.145 11.5098C145.544 9.18555 143.259 8.02344 140.29 8.02344C137.341 8.02344 135.065 9.17578 133.464 11.4805C131.862 13.7656 131.052 17.125 131.032 21.5586V23.6387C131.032 27.9941 131.833 31.373 133.434 33.7754C135.036 36.1777 137.341 37.3789 140.348 37.3789C143.298 37.3789 145.563 36.2266 147.145 33.9219C148.727 31.5977 149.528 28.2188 149.548 23.7852V21.7051ZM216.03 8.46289H202.964V44H194.175V8.46289H181.284V1.34375H216.03V8.46289Z" fill="#FDA704" fill-opacity="0.19"/>
<path d="M17.168 26.8906L12.5977 31.8125V44H3.80859V1.34375H12.5977V20.6797L16.4648 15.377L27.334 1.34375H38.1445L22.998 20.2988L38.584 44H28.125L17.168 26.8906ZM79.2855 28.3848H72.2836V44H63.4945V1.34375H79.3441C84.3832 1.34375 88.2699 2.4668 91.0043 4.71289C93.7387 6.95898 95.1059 10.1328 95.1059 14.2344C95.1059 17.1445 94.4711 19.5762 93.2016 21.5293C91.9516 23.4629 90.0473 25.0059 87.4887 26.1582L96.7172 43.5898V44H87.2836L79.2855 28.3848ZM72.2836 21.2656H79.3734C81.5805 21.2656 83.2895 20.709 84.5004 19.5957C85.7113 18.4629 86.3168 16.9102 86.3168 14.9375C86.3168 12.9258 85.7406 11.3437 84.5883 10.1914C83.4555 9.03906 81.7074 8.46289 79.3441 8.46289H72.2836V21.2656ZM158.454 23.6387C158.454 27.8379 157.712 31.5195 156.227 34.6836C154.743 37.8477 152.614 40.2891 149.841 42.0078C147.087 43.7266 143.923 44.5859 140.348 44.5859C136.813 44.5859 133.659 43.7363 130.886 42.0371C128.112 40.3379 125.964 37.916 124.44 34.7715C122.917 31.6074 122.145 27.9746 122.126 23.873V21.7637C122.126 17.5645 122.878 13.873 124.382 10.6895C125.905 7.48633 128.044 5.03516 130.798 3.33594C133.571 1.61719 136.735 0.757812 140.29 0.757812C143.845 0.757812 146.999 1.61719 149.753 3.33594C152.526 5.03516 154.665 7.48633 156.169 10.6895C157.692 13.873 158.454 17.5547 158.454 21.7344V23.6387ZM149.548 21.7051C149.548 17.2324 148.747 13.834 147.145 11.5098C145.544 9.18555 143.259 8.02344 140.29 8.02344C137.341 8.02344 135.065 9.17578 133.464 11.4805C131.862 13.7656 131.052 17.125 131.032 21.5586V23.6387C131.032 27.9941 131.833 31.373 133.434 33.7754C135.036 36.1777 137.341 37.3789 140.348 37.3789C143.298 37.3789 145.563 36.2266 147.145 33.9219C148.727 31.5977 149.528 28.2188 149.548 23.7852V21.7051ZM216.03 8.46289H202.964V44H194.175V8.46289H181.284V1.34375H216.03V8.46289Z" fill="#FDA704"/>
<path d="M17.168 61.1094L12.5977 56.1875V44H3.80859V86.6562H12.5977V67.3203L16.4648 72.623L27.334 86.6562H38.1445L22.998 67.7012L38.584 44H28.125L17.168 61.1094ZM79.2855 59.6152H72.2836V44H63.4945V86.6562H79.3441C84.3832 86.6562 88.2699 85.5332 91.0043 83.2871C93.7387 81.041 95.1059 77.8672 95.1059 73.7656C95.1059 70.8555 94.4711 68.4238 93.2016 66.4707C91.9516 64.5371 90.0473 62.9941 87.4887 61.8418L96.7172 44.4102V44H87.2836L79.2855 59.6152ZM72.2836 66.7344H79.3734C81.5805 66.7344 83.2895 67.291 84.5004 68.4043C85.7113 69.5371 86.3168 71.0898 86.3168 73.0625C86.3168 75.0742 85.7406 76.6562 84.5883 77.8086C83.4555 78.9609 81.7074 79.5371 79.3441 79.5371H72.2836V66.7344ZM158.454 64.3613C158.454 60.1621 157.712 56.4805 156.227 53.3164C154.743 50.1523 152.614 47.7109 149.841 45.9922C147.087 44.2734 143.923 43.4141 140.348 43.4141C136.813 43.4141 133.659 44.2637 130.886 45.9629C128.112 47.6621 125.964 50.084 124.44 53.2285C122.917 56.3926 122.145 60.0254 122.126 64.127V66.2363C122.126 70.4355 122.878 74.127 124.382 77.3105C125.905 80.5137 128.044 82.9648 130.798 84.6641C133.571 86.3828 136.735 87.2422 140.29 87.2422C143.845 87.2422 146.999 86.3828 149.753 84.6641C152.526 82.9648 154.665 80.5137 156.169 77.3105C157.692 74.127 158.454 70.4453 158.454 66.2656V64.3613ZM149.548 66.2949C149.548 70.7676 148.747 74.166 147.145 76.4902C145.544 78.8145 143.259 79.9766 140.29 79.9766C137.341 79.9766 135.065 78.8242 133.464 76.5195C131.862 74.2344 131.052 70.875 131.032 66.4414V64.3613C131.032 60.0059 131.833 56.627 133.434 54.2246C135.036 51.8223 137.341 50.6211 140.348 50.6211C143.298 50.6211 145.563 51.7734 147.145 54.0781C148.727 56.4023 149.528 59.7812 149.548 64.2148V66.2949ZM216.03 79.5371H202.964V44H194.175V79.5371H181.284V86.6562H216.03V79.5371Z" fill="#FDA704" fill-opacity="0.1"/>
<path d="M17.168 61.1094L12.5977 56.1875V44H3.80859V86.6562H12.5977V67.3203L16.4648 72.623L27.334 86.6562H38.1445L22.998 67.7012L38.584 44H28.125L17.168 61.1094ZM79.2855 59.6152H72.2836V44H63.4945V86.6562H79.3441C84.3832 86.6562 88.2699 85.5332 91.0043 83.2871C93.7387 81.041 95.1059 77.8672 95.1059 73.7656C95.1059 70.8555 94.4711 68.4238 93.2016 66.4707C91.9516 64.5371 90.0473 62.9941 87.4887 61.8418L96.7172 44.4102V44H87.2836L79.2855 59.6152ZM72.2836 66.7344H79.3734C81.5805 66.7344 83.2895 67.291 84.5004 68.4043C85.7113 69.5371 86.3168 71.0898 86.3168 73.0625C86.3168 75.0742 85.7406 76.6562 84.5883 77.8086C83.4555 78.9609 81.7074 79.5371 79.3441 79.5371H72.2836V66.7344ZM158.454 64.3613C158.454 60.1621 157.712 56.4805 156.227 53.3164C154.743 50.1523 152.614 47.7109 149.841 45.9922C147.087 44.2734 143.923 43.4141 140.348 43.4141C136.813 43.4141 133.659 44.2637 130.886 45.9629C128.112 47.6621 125.964 50.084 124.44 53.2285C122.917 56.3926 122.145 60.0254 122.126 64.127V66.2363C122.126 70.4355 122.878 74.127 124.382 77.3105C125.905 80.5137 128.044 82.9648 130.798 84.6641C133.571 86.3828 136.735 87.2422 140.29 87.2422C143.845 87.2422 146.999 86.3828 149.753 84.6641C152.526 82.9648 154.665 80.5137 156.169 77.3105C157.692 74.127 158.454 70.4453 158.454 66.2656V64.3613ZM149.548 66.2949C149.548 70.7676 148.747 74.166 147.145 76.4902C145.544 78.8145 143.259 79.9766 140.29 79.9766C137.341 79.9766 135.065 78.8242 133.464 76.5195C131.862 74.2344 131.052 70.875 131.032 66.4414V64.3613C131.032 60.0059 131.833 56.627 133.434 54.2246C135.036 51.8223 137.341 50.6211 140.348 50.6211C143.298 50.6211 145.563 51.7734 147.145 54.0781C148.727 56.4023 149.528 59.7812 149.548 64.2148V66.2949ZM216.03 79.5371H202.964V44H194.175V79.5371H181.284V86.6562H216.03V79.5371Z" fill="#FDA704" fill-opacity="0.48"/>
</svg>
